<svg width="24" height="24" viewBox="0 0 24 24" fill="none" xmlns="http://www.w3.org/2000/svg">
<path d="M20.9888 20.0625L18.9263 3.5625C18.8806 3.19993 18.7041 2.8665 18.43 2.62483C18.1559 2.38316 17.803 2.24987 17.4375 2.25H6.56253C6.19709 2.24987 5.84417 2.38316 5.57005 2.62483C5.29593 2.8665 5.11946 3.19993 5.07378 3.5625L3.01128 20.0625C2.98467 20.2737 3.00331 20.4881 3.06597 20.6915C3.12863 20.895 3.23386 21.0827 3.37468 21.2423C3.5155 21.402 3.68868 21.5298 3.88271 21.6173C4.07674 21.7048 4.28717 21.7501 4.50003 21.75H8.31471C8.6483 21.7501 8.97238 21.6389 9.23572 21.4342C9.49906 21.2294 9.68663 20.9427 9.76878 20.6194L12 11.9944L14.2303 20.6138C14.3115 20.9383 14.4987 21.2263 14.7623 21.4322C15.026 21.6381 15.3508 21.7499 15.6853 21.75H19.5C19.7129 21.7501 19.9233 21.7048 20.1173 21.6173C20.3114 21.5298 20.4846 21.402 20.6254 21.2423C20.7662 21.0827 20.8714 20.895 20.9341 20.6915C20.9967 20.4881 21.0154 20.2737 20.9888 20.0625ZM18.0844 8.925C17.5478 8.80183 17.0553 8.53397 16.6602 8.15052C16.2652 7.76706 15.9828 7.28268 15.8438 6.75H17.8125L18.0844 8.925ZM17.4375 3.75L17.625 5.25H6.37503L6.56253 3.75H17.4375ZM6.18753 6.75H8.15628C8.01722 7.28268 7.73484 7.76706 7.33981 8.15052C6.94479 8.53397 6.45223 8.80183 5.91565 8.925L6.18753 6.75ZM8.31471 20.25H4.50003L5.71878 10.4747C6.69563 10.371 7.61185 9.95099 8.32804 9.27864C9.04423 8.60628 9.52116 7.71836 9.68628 6.75H11.25V8.90625L8.31471 20.25ZM15.6835 20.2444L12.75 8.90625V6.75H14.3138C14.4789 7.71836 14.9558 8.60628 15.672 9.27864C16.3882 9.95099 17.3044 10.371 18.2813 10.4747L19.5 20.25L15.6835 20.2444Z" fill="black"/>
</svg>
